<?xml version="1.0" encoding="UTF-8"?><svg id="Layer_1" xmlns="http://www.w3.org/2000/svg" viewBox="0 0 180 180"><defs><style>.cls-1{fill:none;stroke:#264b68;stroke-linecap:round;stroke-miterlimit:10;stroke-width:8px;}</style></defs><path class="cls-1" d="M104.23,118.19c-.14,.81-.21,1.65-.21,2.5,0,8.12,6.58,14.7,14.7,14.7s14.7-6.58,14.7-14.7-6.58-14.7-14.7-14.7H40.33"/><path class="cls-1" d="M124.15,80.08c-.14-.81-.21-1.65-.21-2.5,0-8.12,6.58-14.7,14.7-14.7s14.7,6.58,14.7,14.7-6.58,14.7-14.7,14.7H26.67"/><path class="cls-1" d="M85.33,65.81c-.14-.81-.21-1.65-.21-2.5,0-8.12,6.58-14.7,14.7-14.7s14.7,6.58,14.7,14.7-6.58,14.7-14.7,14.7H33.33"/></svg>